<?xml version="1.0" encoding="utf-8"?>
<!-- Generator: Adobe Illustrator 24.1.0, SVG Export Plug-In . SVG Version: 6.00 Build 0)  -->
<svg version="1.1" id="Layer_1" xmlns="http://www.w3.org/2000/svg" xmlns:xlink="http://www.w3.org/1999/xlink" x="0px" y="0px"
	 viewBox="0 0 96.91 122.73" style="enable-background:new 0 0 96.91 122.73;" xml:space="preserve">
<style type="text/css">
	.st0{fill:#8AC24A;}
	.st1{fill:#FDFDFC;}
	.st2{fill:#3C7124;}
</style>
<g>
	<path class="st0" d="M0.11,61.15C0.11,42.9,0.26,24.66,0,6.41C-0.07,1.59,1.12-0.04,6.22,0C34.4,0.25,62.57,0.26,90.74,0
		c5.17-0.05,6.19,1.71,6.17,6.46c-0.17,36.76-0.16,73.52-0.01,110.28c0.02,4.45-1.12,6.02-5.8,5.98c-28.44-0.2-56.88-0.2-85.33,0
		c-4.75,0.03-5.8-1.64-5.76-6.03C0.22,98.18,0.11,79.66,0.11,61.15z"/>
	<path class="st1" d="M71.25,24.24c-0.22,3.18-0.07,6.44-0.72,9.53C68.18,44.92,57.69,52.56,46.46,51.6
		c-10.87-0.93-19.54-9.81-20.48-20.99c-0.18-2.12-0.21-4.25-0.31-6.37c-1.3-2.8-1.86-5.55,0.94-7.82c1.62-1.31,3.4-1.31,5.02,0.01
		c2.79,2.27,2.23,5.02,0.93,7.82c-0.83,7.06,0.32,13.46,6.52,17.87c5.54,3.93,11.53,4.3,17.4,0.87c7.22-4.21,8.79-11.01,7.87-18.75
		c-1.3-2.8-1.86-5.55,0.94-7.82c1.62-1.31,3.4-1.31,5.02,0.01C73.11,18.69,72.55,21.44,71.25,24.24z"/>
	<path class="st2" d="M32.56,24.24c-0.95-2.68,1.38-7.56-3.44-7.57c-4.84-0.01-2.47,4.89-3.45,7.56c-4.26-2.75-3.88-6.07-0.78-9.28
		c2.64-2.73,5.85-2.74,8.48,0C36.43,18.15,36.83,21.49,32.56,24.24z"/>
	<path class="st2" d="M71.25,24.24c-0.95-2.68,1.38-7.56-3.44-7.57c-4.84-0.01-2.47,4.89-3.45,7.56c-4.26-2.75-3.88-6.07-0.78-9.28
		c2.64-2.73,5.85-2.74,8.48,0C75.12,18.15,75.52,21.49,71.25,24.24z"/>
</g>
</svg>
