<?xml version="1.0" encoding="utf-8"?>
<!-- Generator: Adobe Illustrator 24.1.0, SVG Export Plug-In . SVG Version: 6.00 Build 0)  -->
<svg version="1.1" id="Layer_1" xmlns="http://www.w3.org/2000/svg" xmlns:xlink="http://www.w3.org/1999/xlink" x="0px" y="0px"
	 viewBox="0 0 182.66 183.08" style="enable-background:new 0 0 182.66 183.08;" xml:space="preserve">
<path d="M54.63,36.63c0,0.05,0,0.09,0,0.14c0.04,2.3,1.9,4.25,4.04,5.12c2.13,0.87,4.5,0.88,6.81,0.88
	c31.98-0.03,63.96-0.05,95.94-0.08c2.81,0,6.01,0.16,7.82,2.31c5.15,6.11,0.16,22.98-1.33,29.99c-1.29,6.06-2.98,12.03-5.06,17.86
	c-1.48,4.16-3.62,13.78-7.7,16.05c-1.31,0.73-2.89,0.75-4.39,0.75c-30.65,0-61.3,0-91.95,0c-2.21,0-4.63-0.07-6.31-1.51
	c-1.73-1.48-2.15-3.94-2.46-6.19c-4.28-31-8.55-62.01-12.83-93.01c-0.4-2.89-1.02-6.15-3.47-7.74c-1.63-1.06-3.69-1.1-5.62-1.11
	C22.43,0.07,16.75,0.03,11.07,0C6.53-0.03,0.57,1.11,0.03,5.62c-0.39,3.25,2.76,5.99,5.97,6.65s6.52-0.11,9.79-0.28
	c3.27-0.18,6.95,0.44,8.93,3.05c1.28,1.68,1.61,3.88,1.89,5.97c3.95,28.81,7.9,57.62,11.85,86.44c0.47,3.42,0.57,10.38,3.19,12.98
	c2.84,2.8,10.05,1.3,13.76,1.31c11.63,0.04,23.25,0.06,34.88,0.08c23.25,0.03,46.51,0.02,69.76-0.03c1.54,0,3.15-0.03,4.48-0.79
	c3.11-1.79,4.01-7.39,5.11-10.47c1.74-4.85,3.36-9.74,4.85-14.67c5.91-19.45,9.05-37.68,7.92-58.04c-0.12-2.15-0.36-4.55-1.99-5.94
	c-1.43-1.22-3.48-1.28-5.36-1.28c-36.5-0.02-72.99-0.03-109.49-0.05c-2.36,0-4.79,0.01-6.96,0.92
	C56.5,32.35,54.66,34.33,54.63,36.63z"/>
<path d="M61.42,134.1c-13.43,0.02-24.32,10.9-24.33,24.33l0,0c0,13.44,10.89,24.33,24.33,24.33s24.33-10.89,24.33-24.33l0,0
	C85.73,145,74.85,134.11,61.42,134.1z M61.42,170.59c-6.72,0-12.17-5.45-12.17-12.17c0-6.72,5.45-12.17,12.17-12.17
	s12.17,5.45,12.17,12.17C73.57,165.14,68.13,170.59,61.42,170.59z"/>
<path d="M146.58,134.1c-13.43,0.02-24.32,10.9-24.33,24.33l0,0c0,13.44,10.89,24.33,24.33,24.33c13.44,0,24.33-10.89,24.33-24.33
	l0,0C170.9,145,160.01,134.11,146.58,134.1z M146.58,170.59c-6.72,0-12.17-5.45-12.17-12.17c0-6.72,5.45-12.17,12.17-12.17
	c6.72,0,12.17,5.45,12.17,12.17C158.74,165.14,153.3,170.59,146.58,170.59z"/>
</svg>
