<?xml version="1.0" encoding="utf-8"?>
<!-- Generator: Adobe Illustrator 24.1.0, SVG Export Plug-In . SVG Version: 6.00 Build 0)  -->
<svg version="1.1" id="Layer_1" xmlns="http://www.w3.org/2000/svg" xmlns:xlink="http://www.w3.org/1999/xlink" x="0px" y="0px"
	 viewBox="0 0 182.7 183.1" style="enable-background:new 0 0 182.7 183.1;" xml:space="preserve">
<style type="text/css">
	.st0{fill:#5ECE7B;}
	.st1{fill:#FFFFFF;}
</style>
<g>
	<path class="st0" d="M91.3,181L91.3,181c-49.4,0-89.4-40-89.4-89.4v0c0-49.4,40-89.4,89.4-89.4h0c49.4,0,89.4,40,89.4,89.4v0
		C180.7,140.9,140.7,181,91.3,181z"/>
	<g>
		<path class="st1" d="M68.2,57.1C68.2,57.1,68.2,57.1,68.2,57.1c0,1.5,1.2,2.8,2.5,3.3c1.3,0.5,2.8,0.6,4.3,0.6
			c20.1,0,40.3,0,60.4-0.1c1.8,0,3.8,0.1,4.9,1.5c3.2,3.8,0.1,14.5-0.8,18.9c-0.8,3.8-1.9,7.6-3.2,11.2c-0.9,2.6-2.3,8.7-4.8,10.1
			c-0.8,0.5-1.8,0.5-2.8,0.5c-19.3,0-38.6,0-57.9,0c-1.4,0-2.9,0-4-1c-1.1-0.9-1.4-2.5-1.5-3.9c-2.7-19.5-5.4-39-8.1-58.6
			c-0.3-1.8-0.6-3.9-2.2-4.9c-1-0.7-2.3-0.7-3.5-0.7c-3.6,0-7.2,0-10.7-0.1c-2.9,0-6.6,0.7-6.9,3.5c-0.2,2,1.7,3.8,3.8,4.2
			c2,0.4,4.1-0.1,6.2-0.2c2.1-0.1,4.4,0.3,5.6,1.9c0.8,1.1,1,2.4,1.2,3.8c2.5,18.1,5,36.3,7.5,54.4c0.3,2.2,0.4,6.5,2,8.2
			c1.8,1.8,6.3,0.8,8.7,0.8c7.3,0,14.6,0,22,0.1c14.6,0,29.3,0,43.9,0c1,0,2,0,2.8-0.5c2-1.1,2.5-4.7,3.2-6.6
			c1.1-3.1,2.1-6.1,3.1-9.2c3.7-12.2,5.7-23.7,5-36.5c-0.1-1.4-0.2-2.9-1.3-3.7c-0.9-0.8-2.2-0.8-3.4-0.8c-23,0-45.9,0-68.9,0
			c-1.5,0-3,0-4.4,0.6C69.4,54.4,68.3,55.6,68.2,57.1z"/>
		<path class="st1" d="M72.5,118.4c-8.5,0-15.3,6.9-15.3,15.3l0,0c0,8.5,6.9,15.3,15.3,15.3s15.3-6.9,15.3-15.3l0,0
			C87.8,125.3,81,118.4,72.5,118.4z M72.5,141.4c-4.2,0-7.7-3.4-7.7-7.7c0-4.2,3.4-7.7,7.7-7.7s7.7,3.4,7.7,7.7
			C80.2,138,76.7,141.4,72.5,141.4z"/>
		<path class="st1" d="M126.1,118.4c-8.5,0-15.3,6.9-15.3,15.3l0,0c0,8.5,6.9,15.3,15.3,15.3c8.5,0,15.3-6.9,15.3-15.3l0,0
			C141.4,125.3,134.6,118.4,126.1,118.4z M126.1,141.4c-4.2,0-7.7-3.4-7.7-7.7c0-4.2,3.4-7.7,7.7-7.7c4.2,0,7.7,3.4,7.7,7.7
			C133.8,138,130.3,141.4,126.1,141.4z"/>
	</g>
</g>
</svg>
